<svg width="79" height="88" viewBox="0 0 79 88" fill="none" xmlns="http://www.w3.org/2000/svg">
<path d="M0.125 0.625C2.79167 1.29167 5.33333 1.79167 7.75 2.125C10.1667 2.45833 12.2917 2.70833 14.125 2.875C16.2917 3.125 18.2917 3.20833 20.125 3.125C22.4583 3.125 25.375 2.91667 28.875 2.5C32.4583 2.08333 36.125 1.70833 39.875 1.375C43.625 0.958333 47.2083 0.708333 50.625 0.625C54.125 0.458333 56.9583 0.666667 59.125 1.25C61.2917 1.75 63.5 2.54167 65.75 3.625C68.0833 4.625 70.2083 5.91667 72.125 7.5C74.0417 9 75.625 10.7917 76.875 12.875C78.125 14.875 78.8333 17.1667 79 19.75C78.9167 23 78.1667 26.0417 76.75 28.875C75.5833 31.2917 73.625 33.7917 70.875 36.375C68.125 38.875 64.1667 40.7917 59 42.125C61.5833 42.4583 63.7917 43.0417 65.625 43.875C67.5417 44.625 69.1667 45.5417 70.5 46.625C71.9167 47.625 73.0417 48.75 73.875 50C74.7917 51.25 75.5 52.5 76 53.75C77.25 56.6667 77.8333 59.9167 77.75 63.5C77.25 68.1667 76.2917 71.875 74.875 74.625C73.5417 77.375 72 79.5 70.25 81C68.5 82.5 66.7083 83.5417 64.875 84.125C63.0417 84.7083 61.375 85.1667 59.875 85.5C58.375 85.8333 56.5417 86 54.375 86C52.2083 86 49.875 85.9583 47.375 85.875C44.9583 85.7083 42.4583 85.5833 39.875 85.5C37.2917 85.3333 34.8333 85.3333 32.5 85.5C30.5833 85.6667 28.25 85.8333 25.5 86C23.1667 86.1667 20.25 86.375 16.75 86.625C13.25 86.7917 9.16667 87 4.5 87.25C5.41667 86.5833 6.16667 85.8333 6.75 85C7.41667 84.0833 7.95833 83.2917 8.375 82.625C8.79167 81.7917 9.16667 81 9.5 80.25C9.75 79.5833 9.95833 77.75 10.125 74.75C10.2917 71.75 10.4167 68.1667 10.5 64C10.5833 59.75 10.625 55.2083 10.625 50.375C10.7083 45.4583 10.6667 40.75 10.5 36.25C10.4167 31.6667 10.25 27.625 10 24.125C9.83333 20.5417 9.58333 17.9583 9.25 16.375C8.75 14.625 8.08333 12.8333 7.25 11C6.58333 9.41667 5.625 7.70833 4.375 5.875C3.20833 4.04167 1.79167 2.29167 0.125 0.625ZM26.5 13.375C26.5 13.7083 26.5417 14.8333 26.625 16.75C26.7083 18.4167 26.7917 21 26.875 24.5C27.0417 27.9167 27.25 32.7917 27.5 39.125C29.5833 40.0417 31.625 40.5417 33.625 40.625C35.625 40.625 37.4167 40.5417 39 40.375C40.8333 40.125 42.5833 39.7083 44.25 39.125C46.5 38.2083 48.25 36.7083 49.5 34.625C50.8333 32.5417 51.7083 30.375 52.125 28.125C52.625 25.7917 52.75 23.625 52.5 21.625C52.25 19.5417 51.7083 18.0417 50.875 17.125C49.2917 15.7083 47.3333 14.5417 45 13.625C43 12.875 40.4583 12.375 37.375 12.125C34.375 11.7917 30.75 12.2083 26.5 13.375ZM25.875 72.625C28.9583 74.2083 31.6667 75.25 34 75.75C36.3333 76.25 38.2917 76.5 39.875 76.5C41.7083 76.5 43.2917 76.25 44.625 75.75C46.2083 75 47.75 74 49.25 72.75C50.8333 71.4167 52 69.875 52.75 68.125C53.5833 66.2917 53.9167 64.2917 53.75 62.125C53.5833 59.875 52.625 57.4167 50.875 54.75C49.2917 52.8333 47.375 51.3333 45.125 50.25C43.125 49.3333 40.5833 48.75 37.5 48.5C34.5 48.25 30.7917 48.9583 26.375 50.625L25.875 72.625Z" fill="#023047"/>
</svg>
